<?xml version="1.0" encoding="utf-8"?>
<!-- Generator: Adobe Illustrator 22.0.1, SVG Export Plug-In . SVG Version: 6.00 Build 0)  -->
<svg version="1.1" id="Layer_1" xmlns="http://www.w3.org/2000/svg" xmlns:xlink="http://www.w3.org/1999/xlink" x="0px" y="0px"
	 viewBox="0 0 24 24" style="enable-background:new 0 0 24 24;" xml:space="preserve">
<style type="text/css">
	.st0{fill:none;}
	.st1{fill:#B97B6C;}
</style>
<path class="st0" d="M0,0h24v24H0V0z"/>
<path class="st1" d="M21.4,11.6l-9-9C12.1,2.2,11.6,2,11,2H4C2.9,2,2,2.9,2,4v7c0,0.6,0.2,1.1,0.6,1.4l9,9c0.4,0.4,0.9,0.6,1.4,0.6
	s1.1-0.2,1.4-0.6l7-7c0.4-0.4,0.6-0.9,0.6-1.4S21.8,11.9,21.4,11.6z M5.5,7C4.7,7,4,6.3,4,5.5S4.7,4,5.5,4S7,4.7,7,5.5S6.3,7,5.5,7z
	"/>
</svg>
