<?xml version="1.0" encoding="utf-8"?>
<!-- Generator: Adobe Illustrator 22.0.1, SVG Export Plug-In . SVG Version: 6.00 Build 0)  -->
<svg version="1.1" id="Layer_1" xmlns="http://www.w3.org/2000/svg" xmlns:xlink="http://www.w3.org/1999/xlink" x="0px" y="0px"
	 viewBox="0 0 24 24" style="enable-background:new 0 0 24 24;" xml:space="preserve">
<style type="text/css">
	.st0{fill:none;}
	.st1{fill:#B97B6C;}
</style>
<path class="st0" d="M0,0h24v24H0V0z"/>
<path class="st1" d="M22,5.7l-4.6-3.9l-1.3,1.5l4.6,3.9L22,5.7z M7.9,3.4L6.6,1.9L2,5.7l1.3,1.5C3.3,7.2,7.9,3.4,7.9,3.4z M12.5,8
	H11v6l4.8,2.9l0.8-1.2l-4-2.4V8z M12,4c-5,0-9,4-9,9s4,9,9,9c5,0,9-4,9-9S17,4,12,4z M12,20c-3.9,0-7-3.1-7-7s3.1-7,7-7s7,3.1,7,7
	S15.9,20,12,20z"/>
</svg>
