<?xml version="1.0" encoding="utf-8"?>
<!-- Generator: Adobe Illustrator 22.0.1, SVG Export Plug-In . SVG Version: 6.00 Build 0)  -->
<svg version="1.1" id="Layer_1" xmlns="http://www.w3.org/2000/svg" xmlns:xlink="http://www.w3.org/1999/xlink" x="0px" y="0px"
	 viewBox="0 0 541 249" style="enable-background:new 0 0 541 249;" xml:space="preserve">
<style type="text/css">
	.st0{fill:#FFFFFF;stroke:#FFFFFF;stroke-miterlimit:10;}
	.st1{fill:#3BAFA9;stroke:#3BAFA9;stroke-miterlimit:10;}
</style>
<path class="st0" d="M167.9,220.4H16.5c-5.8,0-10.6-4.8-10.6-10.6v-95.6c0-5.8,4.8-10.6,10.6-10.6h151.4c5.8,0,10.6,4.8,10.6,10.6
	v95.6C178.6,215.6,173.8,220.4,167.9,220.4z"/>
<path class="st0" d="M477.8,186.4l-139.5,58.8c-5.4,2.3-11.7-0.3-13.9-5.7l-37.2-88.1c-2.3-5.4,0.3-11.7,5.7-13.9l139.5-58.8
	c5.4-2.3,11.7,0.3,13.9,5.7l37.2,88.1C485.8,177.9,483.2,184.1,477.8,186.4z"/>
<path class="st0" d="M267,115.2l-87-35.1c-5.4-2.2-8.1-8.4-5.9-13.8l21.2-52.6c2.2-5.4,8.4-8.1,13.8-5.9l87,35.1
	c5.4,2.2,8.1,8.4,5.9,13.8l-21.2,52.6C278.6,114.7,272.4,117.4,267,115.2z"/>
<path class="st0" d="M472.6,36.4l48.5-8c5.8-1,11.2,3,12.2,8.8l4.3,26c1,5.8-3,11.2-8.8,12.2l-48.5,8c-5.8,1-11.2-3-12.2-8.8
	l-4.3-26C463,42.9,466.9,37.4,472.6,36.4z"/>
<circle class="st1" cx="22.7" cy="137.1" r="9.7"/>
<circle class="st1" cx="208.1" cy="26.5" r="7.1"/>
<circle class="st1" cx="480.7" cy="50.9" r="3.5"/>
<circle class="st1" cx="525" cy="43.8" r="3.5"/>
<circle class="st1" cx="285.1" cy="61.5" r="7.1"/>
<circle class="st1" cx="163.5" cy="137.1" r="9.7"/>
<circle class="st1" cx="312.3" cy="161.9" r="9.7"/>
<ellipse transform="matrix(0.1602 -0.9871 0.9871 0.1602 260.5471 532.7259)" class="st1" cx="443.3" cy="113.2" rx="9.7" ry="9.7"/>
</svg>
